<svg width="40" height="40" viewBox="0 0 40 40" fill="none" xmlns="http://www.w3.org/2000/svg">
<g clip-path="url(#clip0_1_4466)">
<path d="M4 7.33398H36V39.334H4V7.33398Z" fill="#B9BFCC"/>
<path d="M3.99935 6H11.9994V8.66667H3.99935C3.64573 8.66667 3.30659 8.52619 3.05654 8.27614C2.80649 8.02609 2.66602 7.68696 2.66602 7.33333C2.66602 6.97971 2.80649 6.64057 3.05654 6.39052C3.30659 6.14048 3.64573 6 3.99935 6Z" fill="#394C56"/>
<path d="M36.0007 8.66602H28.0006V5.99935H36.0007C36.3543 5.99935 36.6934 6.13983 36.9435 6.38987C37.1935 6.63992 37.334 6.97906 37.334 7.33268C37.334 7.6863 37.1935 8.02544 36.9435 8.27549C36.6934 8.52554 36.3543 8.66602 36.0007 8.66602Z" fill="#394C56"/>
<path d="M10.666 2H29.3327V39.3333H10.666V2Z" fill="#CCD0DA"/>
<path d="M15.334 6.66602H14.0007C13.6325 6.66602 13.334 6.96449 13.334 7.33268V8.66602C13.334 9.03421 13.6325 9.33268 14.0007 9.33268H15.334C15.7022 9.33268 16.0007 9.03421 16.0007 8.66602V7.33268C16.0007 6.96449 15.7022 6.66602 15.334 6.66602Z" fill="#346D92"/>
<path d="M7.33268 12H10.666V14.6667H7.33268C7.15587 14.6667 6.9863 14.5964 6.86128 14.4714C6.73625 14.3464 6.66602 14.1768 6.66602 14V12.6667C6.66602 12.4899 6.73625 12.3203 6.86128 12.1953C6.9863 12.0702 7.15587 12 7.33268 12Z" fill="#295474"/>
<path d="M7.33268 17.334H10.666V20.0007H7.33268C7.15587 20.0007 6.9863 19.9304 6.86128 19.8054C6.73625 19.6804 6.66602 19.5108 6.66602 19.334V18.0007C6.66602 17.8238 6.73625 17.6543 6.86128 17.5292C6.9863 17.4042 7.15587 17.334 7.33268 17.334Z" fill="#295474"/>
<path d="M7.33268 22.666H10.666V25.3327H7.33268C7.15587 25.3327 6.9863 25.2624 6.86128 25.1374C6.73625 25.0124 6.66602 24.8428 6.66602 24.666V23.3327C6.66602 23.1559 6.73625 22.9863 6.86128 22.8613C6.9863 22.7363 7.15587 22.666 7.33268 22.666Z" fill="#295474"/>
<path d="M7.33268 28H10.666V30.6667H7.33268C7.15587 30.6667 6.9863 30.5964 6.86128 30.4714C6.73625 30.3464 6.66602 30.1768 6.66602 30V28.6667C6.66602 28.4899 6.73625 28.3203 6.86128 28.1953C6.9863 28.0702 7.15587 28 7.33268 28Z" fill="#295474"/>
<path d="M20.668 6.66602H19.3346C18.9664 6.66602 18.668 6.96449 18.668 7.33268V8.66602C18.668 9.03421 18.9664 9.33268 19.3346 9.33268H20.668C21.0362 9.33268 21.3346 9.03421 21.3346 8.66602V7.33268C21.3346 6.96449 21.0362 6.66602 20.668 6.66602Z" fill="#346D92"/>
<path d="M26 6.66602H24.6667C24.2985 6.66602 24 6.96449 24 7.33268V8.66602C24 9.03421 24.2985 9.33268 24.6667 9.33268H26C26.3682 9.33268 26.6667 9.03421 26.6667 8.66602V7.33268C26.6667 6.96449 26.3682 6.66602 26 6.66602Z" fill="#346D92"/>
<path d="M15.334 12H14.0007C13.6325 12 13.334 12.2985 13.334 12.6667V14C13.334 14.3682 13.6325 14.6667 14.0007 14.6667H15.334C15.7022 14.6667 16.0007 14.3682 16.0007 14V12.6667C16.0007 12.2985 15.7022 12 15.334 12Z" fill="#346D92"/>
<path d="M20.668 12H19.3346C18.9664 12 18.668 12.2985 18.668 12.6667V14C18.668 14.3682 18.9664 14.6667 19.3346 14.6667H20.668C21.0362 14.6667 21.3346 14.3682 21.3346 14V12.6667C21.3346 12.2985 21.0362 12 20.668 12Z" fill="#346D92"/>
<path d="M26 12H24.6667C24.2985 12 24 12.2985 24 12.6667V14C24 14.3682 24.2985 14.6667 24.6667 14.6667H26C26.3682 14.6667 26.6667 14.3682 26.6667 14V12.6667C26.6667 12.2985 26.3682 12 26 12Z" fill="#346D92"/>
<path d="M15.334 17.332H14.0007C13.6325 17.332 13.334 17.6305 13.334 17.9987V19.332C13.334 19.7002 13.6325 19.9987 14.0007 19.9987H15.334C15.7022 19.9987 16.0007 19.7002 16.0007 19.332V17.9987C16.0007 17.6305 15.7022 17.332 15.334 17.332Z" fill="#346D92"/>
<path d="M20.668 17.332H19.3346C18.9664 17.332 18.668 17.6305 18.668 17.9987V19.332C18.668 19.7002 18.9664 19.9987 19.3346 19.9987H20.668C21.0362 19.9987 21.3346 19.7002 21.3346 19.332V17.9987C21.3346 17.6305 21.0362 17.332 20.668 17.332Z" fill="#346D92"/>
<path d="M26 17.332H24.6667C24.2985 17.332 24 17.6305 24 17.9987V19.332C24 19.7002 24.2985 19.9987 24.6667 19.9987H26C26.3682 19.9987 26.6667 19.7002 26.6667 19.332V17.9987C26.6667 17.6305 26.3682 17.332 26 17.332Z" fill="#346D92"/>
<path d="M15.334 22.666H14.0007C13.6325 22.666 13.334 22.9645 13.334 23.3327V24.666C13.334 25.0342 13.6325 25.3327 14.0007 25.3327H15.334C15.7022 25.3327 16.0007 25.0342 16.0007 24.666V23.3327C16.0007 22.9645 15.7022 22.666 15.334 22.666Z" fill="#346D92"/>
<path d="M20.668 22.666H19.3346C18.9664 22.666 18.668 22.9645 18.668 23.3327V24.666C18.668 25.0342 18.9664 25.3327 19.3346 25.3327H20.668C21.0362 25.3327 21.3346 25.0342 21.3346 24.666V23.3327C21.3346 22.9645 21.0362 22.666 20.668 22.666Z" fill="#346D92"/>
<path d="M26 22.666H24.6667C24.2985 22.666 24 22.9645 24 23.3327V24.666C24 25.0342 24.2985 25.3327 24.6667 25.3327H26C26.3682 25.3327 26.6667 25.0342 26.6667 24.666V23.3327C26.6667 22.9645 26.3682 22.666 26 22.666Z" fill="#346D92"/>
<path d="M29.334 0.666016H10.6673C9.93094 0.666016 9.33398 1.26297 9.33398 1.99935C9.33398 2.73573 9.93094 3.33268 10.6673 3.33268H29.334C30.0704 3.33268 30.6673 2.73573 30.6673 1.99935C30.6673 1.26297 30.0704 0.666016 29.334 0.666016Z" fill="#394C56"/>
<path d="M16 30H24V39.3333H16V30Z" fill="#346D92"/>
<path d="M2.33241 39.3333C1.91909 39.3337 1.52036 39.1806 1.21363 38.9035C0.906897 38.6265 0.714042 38.2454 0.672504 37.8342C0.630966 37.4229 0.743709 37.0109 0.988846 36.6782C1.23398 36.3454 1.59402 36.1156 1.99907 36.0333V36C1.99907 35.4696 2.20979 34.9609 2.58486 34.5858C2.95993 34.2107 3.46864 34 3.99907 34C4.52951 34 5.03822 34.2107 5.41329 34.5858C5.78836 34.9609 5.99908 35.4696 5.99908 36V36.0333C6.10893 36.012 6.22051 36.0009 6.33241 36C6.77444 36 7.19836 36.1756 7.51092 36.4882C7.82348 36.8007 7.99908 37.2246 7.99908 37.6667C7.99908 38.1087 7.82348 38.5326 7.51092 38.8452C7.19836 39.1577 6.77444 39.3333 6.33241 39.3333H2.33241Z" fill="#2C9B78"/>
<path d="M32.6673 14.666H29.334V11.9993H32.6673C32.8441 11.9993 33.0137 12.0696 33.1387 12.1946C33.2637 12.3196 33.334 12.4892 33.334 12.666V13.9993C33.334 14.1762 33.2637 14.3457 33.1387 14.4708C33.0137 14.5958 32.8441 14.666 32.6673 14.666Z" fill="#295474"/>
<path d="M32.6673 20H29.334V17.3333H32.6673C32.8441 17.3333 33.0137 17.4036 33.1387 17.5286C33.2637 17.6536 33.334 17.8232 33.334 18V19.3333C33.334 19.5101 33.2637 19.6797 33.1387 19.8047C33.0137 19.9298 32.8441 20 32.6673 20Z" fill="#295474"/>
<path d="M32.6673 25.334H29.334V22.6673H32.6673C32.8441 22.6673 33.0137 22.7376 33.1387 22.8626C33.2637 22.9876 33.334 23.1572 33.334 23.334V24.6673C33.334 24.8441 33.2637 25.0137 33.1387 25.1387C33.0137 25.2637 32.8441 25.334 32.6673 25.334Z" fill="#295474"/>
<path d="M32.6673 30.666H29.334V27.9993H32.6673C32.8441 27.9993 33.0137 28.0696 33.1387 28.1946C33.2637 28.3196 33.334 28.4892 33.334 28.666V29.9993C33.334 30.1762 33.2637 30.3457 33.1387 30.4708C33.0137 30.5958 32.8441 30.666 32.6673 30.666Z" fill="#295474"/>
<path d="M37.6667 39.3333C38.08 39.3337 38.4787 39.1806 38.7854 38.9035C39.0922 38.6265 39.285 38.2454 39.3266 37.8342C39.3681 37.4229 39.2554 37.0109 39.0102 36.6782C38.7651 36.3454 38.4051 36.1156 38 36.0333V36C38 35.4696 37.7893 34.9609 37.4142 34.5858C37.0391 34.2107 36.5304 34 36 34C35.4696 34 34.9609 34.2107 34.5858 34.5858C34.2107 34.9609 34 35.4696 34 36V36.0333C33.8901 36.012 33.7786 36.0009 33.6667 36C33.2246 36 32.8007 36.1756 32.4882 36.4882C32.1756 36.8007 32 37.2246 32 37.6667C32 38.1087 32.1756 38.5326 32.4882 38.8452C32.8007 39.1577 33.2246 39.3333 33.6667 39.3333H37.6667Z" fill="#2C9B78"/>
<path d="M24.6667 28.666H15.3333C14.597 28.666 14 29.263 14 29.9993C14 30.7357 14.597 31.3327 15.3333 31.3327H24.6667C25.403 31.3327 26 30.7357 26 29.9993C26 29.263 25.403 28.666 24.6667 28.666Z" fill="#394C56"/>
<path d="M19.334 31.334H20.6673V39.334H19.334V31.334Z" fill="#295474"/>
</g>
<defs>
<clipPath id="clip0_1_4466">
<rect width="40" height="40" fill="white"/>
</clipPath>
</defs>
</svg>
