<svg width="72" height="72" viewBox="0 0 72 72" fill="none" xmlns="http://www.w3.org/2000/svg">
<rect width="72" height="72" rx="24" fill="#2D2E74" fill-opacity="0.1"/>
<g clip-path="url(#clip0_1_4543)">
<path d="M26.2829 34.9049H30.9698C31.6174 34.9049 32.1415 34.3808 32.1415 33.7332V26.703C32.1415 26.0553 31.6174 25.5312 30.9698 25.5312H26.2829C25.6353 25.5312 25.1112 26.0553 25.1112 26.703V33.7332C25.1112 34.3808 25.6353 34.9049 26.2829 34.9049ZM35.6566 34.9049H40.3434C40.9911 34.9049 41.5151 34.3808 41.5151 33.7332V26.703C41.5151 26.0553 40.9911 25.5312 40.3434 25.5312H35.6566C35.0089 25.5312 34.4849 26.0553 34.4849 26.703V33.7332C34.4849 34.3808 35.0089 34.9049 35.6566 34.9049ZM57.7862 42.4271C57.5519 42.1225 57.2003 41.9351 56.8254 41.9351H52.6464L43.5656 40.7634H45.0303V36.0765H23.9395V40.7634H27.4546L20.4244 41.9351H19.1746C18.7997 41.9351 18.4481 42.1225 18.2138 42.4271C18.0029 42.7318 17.9325 43.1302 18.0732 43.4817L20.3307 49.9964C20.4244 50.3244 20.6822 50.5823 21.0102 50.7229C21.3383 50.8401 21.7133 50.8165 22.0179 50.6291C22.3929 50.4182 22.7444 50.1605 23.0724 49.9026C23.7989 49.3637 24.3144 48.9653 25.5095 48.9653C26.6812 48.9653 27.1969 49.3636 27.9233 49.9026C28.7669 50.5354 29.7981 51.3087 31.7431 51.3087C33.7115 51.3087 34.7426 50.5353 35.5862 49.9026C36.3128 49.3637 36.8283 48.9653 38 48.9653C39.1717 48.9653 39.6872 49.3636 40.4138 49.9026C41.2574 50.5354 42.2885 51.3087 44.2569 51.3087C46.202 51.3087 47.2331 50.5353 48.0767 49.9026C48.8032 49.3637 49.3188 48.9653 50.4905 48.9653C51.381 48.9653 51.873 49.1996 52.1542 49.3636C52.5293 49.6214 53.0682 49.5979 53.4432 49.3402C55.5522 47.8873 57.1536 45.872 57.9268 43.4817C58.0675 43.1069 57.9972 42.7318 57.7862 42.4271Z" fill="url(#paint0_linear_1_4543)"/>
<path d="M20.4235 33.7338V41.9358H52.6455L45.9668 33.0308C45.7558 32.7261 45.4042 32.5621 45.0293 32.5621H21.5952C20.939 32.5621 20.4235 33.0776 20.4235 33.7338ZM40.3425 37.2489H42.6859C43.3422 37.2489 43.8576 37.7644 43.8576 38.4206C43.8576 39.0767 43.3422 39.5923 42.6859 39.5923H40.3425C39.6863 39.5923 39.1708 39.0767 39.1708 38.4206C39.1708 37.7644 39.6863 37.2489 40.3425 37.2489ZM33.3123 37.2489H35.6557C36.3119 37.2489 36.8274 37.7644 36.8274 38.4206C36.8274 39.0767 36.3119 39.5923 35.6557 39.5923H33.3123C32.656 39.5923 32.1406 39.0767 32.1406 38.4206C32.1406 37.7644 32.656 37.2489 33.3123 37.2489ZM26.282 37.2489H28.6254C29.2817 37.2489 29.7971 37.7644 29.7971 38.4206C29.7971 39.0767 29.2817 39.5923 28.6254 39.5923H26.282C25.6258 39.5923 25.1103 39.0767 25.1103 38.4206C25.1103 37.7644 25.6258 37.2489 26.282 37.2489ZM20.3454 20.845H26.282C26.9274 20.845 27.4537 21.3702 27.4537 22.0167C27.4537 22.6644 27.9778 23.1884 28.6254 23.1884C29.2731 23.1884 29.7971 22.6644 29.7971 22.0167C29.7971 21.604 29.7126 21.2133 29.5813 20.845H35.6557C36.3011 20.845 36.8274 21.3702 36.8274 22.0167C36.8274 22.6644 37.3515 23.1884 37.9991 23.1884C38.6467 23.1884 39.1708 22.6644 39.1708 22.0167C39.1708 20.0784 37.594 18.5016 35.6557 18.5016C35.4181 18.5016 20.8904 18.5016 20.3454 18.5016V17.1737C20.3454 16.526 19.8213 16.002 19.1737 16.002C18.526 16.002 18.002 16.526 18.002 17.1737V18.5016C18.002 19.7934 19.0524 20.845 20.3454 20.845Z" fill="url(#paint1_linear_1_4543)"/>
<path d="M55.3281 32.0615C55.3281 35.742 52.3445 38.2981 48.664 38.2981C44.9836 38.2981 42 35.742 42 32.0615C42 30.1746 42.3573 29.1592 44.2834 27.2331C45.6742 25.8423 45.2041 24.727 45.964 24.727C46.6261 24.727 47.8596 26.691 46.9698 28.2321C46.4952 29.0542 47.1765 29.8812 47.9465 29.8812C48.8573 29.8812 49.394 28.6292 49.394 27.5228C49.394 24.5289 50.0162 23 51.1686 23C52.0541 23 51.6799 24.8344 52.5804 25.874C54.3082 27.869 55.3281 29.6421 55.3281 32.0615Z" fill="url(#paint2_linear_1_4543)"/>
<path d="M51.3375 35.6578C51.3375 37.1345 50.1405 38.4178 48.6639 38.4178C47.1873 38.4178 45.9902 37.1345 45.9902 35.6578C45.9902 34.261 46.6769 33.317 47.5127 34.1529C47.9454 34.5856 48.5418 34.0165 48.2835 33.569C47.6595 32.4883 47.8238 31.8438 48.3656 31.8438C49.0429 31.8438 51.3375 33.0552 51.3375 35.6578Z" fill="url(#paint3_linear_1_4543)"/>
<path d="M54.3163 48.0247C55.0395 48.5717 55.6394 48.9665 56.8225 48.9665C57.4702 48.9665 57.9942 49.4905 57.9943 50.1382V54.825C57.9943 55.4726 57.4702 55.9967 56.8226 55.9967H19.1717C18.5241 55.9967 18 55.4726 18 54.825V50.1382C18 49.4905 18.5241 48.9665 19.1717 48.9665C19.9383 48.9665 20.497 48.7788 20.9021 48.5751C21.9026 48.0047 22.9031 46.623 25.5065 46.623C27.4534 46.623 28.4899 47.4012 29.3246 48.0277L29.3283 48.0305L29.329 48.031C30.0518 48.5743 30.5737 48.9665 31.7404 48.9665C32.9218 48.9665 33.4483 48.5728 34.1767 48.0283L34.1799 48.0259C35.0129 47.4011 36.0519 46.623 37.9971 46.623C39.9423 46.623 40.9813 47.4011 41.8143 48.0259L41.8172 48.0281C42.5457 48.5727 43.0723 48.9665 44.2538 48.9665C45.4205 48.9665 45.9423 48.5743 46.6652 48.031L46.6658 48.0305L46.6695 48.0278C47.5042 47.4011 48.5407 46.623 50.4876 46.623C52.108 46.623 53.0805 47.0884 54.3163 48.0247Z" fill="url(#paint4_linear_1_4543)"/>
</g>
<defs>
<linearGradient id="paint0_linear_1_4543" x1="38.034" y1="49.1415" x2="38.034" y2="28.1757" gradientUnits="userSpaceOnUse">
<stop stop-color="#2D2E74"/>
<stop offset="1" stop-color="#5658BA"/>
</linearGradient>
<linearGradient id="paint1_linear_1_4543" x1="35.3233" y1="11.3052" x2="35.3233" y2="43.957" gradientUnits="userSpaceOnUse">
<stop stop-color="#CAE9FF"/>
<stop offset="1" stop-color="#84C5F2"/>
</linearGradient>
<linearGradient id="paint2_linear_1_4543" x1="48.6667" y1="38.6669" x2="48.6667" y2="26.555" gradientUnits="userSpaceOnUse">
<stop stop-color="#DD5F06"/>
<stop offset="1" stop-color="#FC954C"/>
</linearGradient>
<linearGradient id="paint3_linear_1_4543" x1="48.6666" y1="38.8121" x2="48.6666" y2="33.9628" gradientUnits="userSpaceOnUse">
<stop stop-color="#FED901"/>
<stop offset="1" stop-color="#FFF8D2"/>
</linearGradient>
<linearGradient id="paint4_linear_1_4543" x1="37.9966" y1="44.9254" x2="37.9966" y2="56.7273" gradientUnits="userSpaceOnUse">
<stop stop-color="#CAE9FF"/>
<stop offset="1" stop-color="#84C5F2"/>
</linearGradient>
<clipPath id="clip0_1_4543">
<rect width="40" height="40" fill="white" transform="translate(18 16)"/>
</clipPath>
</defs>
</svg>
