<svg width="40" height="40" viewBox="0 0 40 40" fill="none" xmlns="http://www.w3.org/2000/svg">
<path d="M30.625 5.9375V9.45313L28.2813 11.7969H2.34375L0 9.45313V5.9375C0 3.99211 1.57023 2.34375 3.51563 2.34375H27.1094C29.0548 2.34375 30.625 3.99211 30.625 5.9375Z" fill="#4D5A68"/>
<path d="M30.625 5.9375V9.45313L28.2813 11.7969H15.3125V2.34375H27.1094C29.0548 2.34375 30.625 3.99211 30.625 5.9375Z" fill="#304653"/>
<path d="M30.625 9.45312V36.4063C30.625 38.3515 29.0548 40 27.1094 40H3.51563C1.57023 40 0 38.3515 0 36.4063V9.45312H30.625Z" fill="white"/>
<path d="M30.625 9.45312V36.4063C30.625 38.3515 29.0548 40 27.1094 40H15.3125V9.45312H30.625Z" fill="#EAEAEA"/>
<path d="M5.85938 7.10938C5.21164 7.10938 4.6875 6.58524 4.6875 5.9375V1.17188C4.6875 0.524141 5.21164 0 5.85938 0C6.50711 0 7.03125 0.524141 7.03125 1.17188V5.9375C7.03125 6.58524 6.50711 7.10938 5.85938 7.10938Z" fill="#CAD4E4"/>
<path d="M10.625 7.10938C9.97727 7.10938 9.45312 6.58524 9.45312 5.9375V1.17188C9.45312 0.524141 9.97727 0 10.625 0C11.2727 0 11.7969 0.524141 11.7969 1.17188V5.9375C11.7969 6.58524 11.2727 7.10938 10.625 7.10938Z" fill="#CAD4E4"/>
<path d="M16.4844 1.17188V5.9375C16.4844 6.59367 15.9688 7.10938 15.3125 7.10938C14.6562 7.10938 14.1406 6.59367 14.1406 5.9375V1.17188C14.1406 0.515547 14.6562 0 15.3125 0C15.9688 0 16.4844 0.515547 16.4844 1.17188Z" fill="#CAD4E4"/>
<path d="M20.0781 7.10938C19.4304 7.10938 18.9062 6.58524 18.9062 5.9375V1.17188C18.9062 0.524141 19.4304 0 20.0781 0C20.7259 0 21.25 0.524141 21.25 1.17188V5.9375C21.25 6.58524 20.7259 7.10938 20.0781 7.10938Z" fill="#ADB5CC"/>
<path d="M24.7656 7.10938C24.1179 7.10938 23.5938 6.58524 23.5938 5.9375V1.17188C23.5938 0.524141 24.1179 0 24.7656 0C25.4134 0 25.9375 0.524141 25.9375 1.17188V5.9375C25.9375 6.58524 25.4134 7.10938 24.7656 7.10938Z" fill="#ADB5CC"/>
<path d="M16.4844 31.7188C16.4844 32.3749 15.9688 32.8906 15.3125 32.8906H5.85938C5.20305 32.8906 4.6875 32.3749 4.6875 31.7188C4.6875 31.0624 5.20305 30.5469 5.85938 30.5469H15.3125C15.9688 30.5469 16.4844 31.0624 16.4844 31.7188Z" fill="#DD864D"/>
<path d="M12.9688 25.8594H5.85938C5.21164 25.8594 4.6875 25.3352 4.6875 24.6875C4.6875 24.0398 5.21164 23.5156 5.85938 23.5156H12.9688C13.6165 23.5156 14.1406 24.0398 14.1406 24.6875C14.1406 25.3352 13.6165 25.8594 12.9688 25.8594Z" fill="#DD864D"/>
<path d="M10.625 18.8281H5.85938C5.21164 18.8281 4.6875 18.304 4.6875 17.6563C4.6875 17.0085 5.21164 16.4844 5.85938 16.4844H10.625C11.2727 16.4844 11.7969 17.0085 11.7969 17.6563C11.7969 18.304 11.2727 18.8281 10.625 18.8281Z" fill="#DD864D"/>
<path d="M32.0255 25.3255C32.4214 18.7147 37.029 14.9398 37.2984 14.5606C37.8278 14.014 37.7009 13.1121 37.0411 12.7312L35.5813 11.8883C35.0203 11.5644 34.8285 10.8484 35.1524 10.2875C35.4763 9.72657 36.1922 9.5347 36.7532 9.85861L38.213 10.7015C40.1928 11.8445 40.5735 14.5441 38.9823 16.1896C38.6032 16.7185 34.7135 19.6318 34.3653 25.466C34.3264 26.1122 33.7714 26.6044 33.1251 26.5656C32.4734 26.5247 31.9878 25.9671 32.0255 25.3255Z" fill="#304653"/>
<path d="M39.5268 7.40061L37.769 10.4452L34.7298 11.3969L32.3752 10.0374L31.6797 6.92952L33.4375 3.88491C34.4102 2.20022 36.5552 1.62545 38.2399 2.59811C39.9246 3.57077 40.4995 5.71592 39.5268 7.40061Z" fill="#4D5A68"/>
<path d="M34.73 11.3963L33.5527 10.7166L38.2402 2.59766C39.9249 3.57031 40.4997 5.71539 39.527 7.40008L37.7692 10.4447L34.73 11.3963Z" fill="#304653"/>
<path d="M26.7609 29.7459L20.4688 26.113C20.8009 22.6784 22.0449 19.4454 24.1822 16.728C24.5446 16.2878 30.8452 8.23406 31.1405 7.86328L31.6795 6.92969L37.7688 10.4453L37.2414 11.3588C37.2063 11.4196 33.1787 21.4893 33.0318 21.8374C31.7472 25.047 29.5693 27.7409 26.7609 29.7459Z" fill="#E9336D"/>
<path d="M26.7613 29.7459L23.6152 27.9295L34.7246 8.6875L37.7692 10.4453L37.2419 11.3588C37.2067 11.4196 33.1791 21.4893 33.0323 21.8374C31.7476 25.047 29.5697 27.7409 26.7613 29.7459Z" fill="#B12E65"/>
<path d="M24.9043 25.6973C23.6458 24.9708 22.1311 25.0163 20.9065 25.8248L20.4691 26.1137C20.4565 26.3229 20.4033 26.5088 20.3908 26.718L20.0925 31.6879L19.0613 33.474C18.7332 34.0423 18.9218 34.7467 19.4902 35.0748C20.0586 35.403 20.7629 35.2141 21.091 34.6459L22.1222 32.8598L26.2771 30.1165C26.4519 30.001 26.5863 29.8621 26.7612 29.7465L26.7927 29.2234C26.8806 27.7585 26.1627 26.4239 24.9043 25.6973Z" fill="#CAD4E4"/>
<path d="M24.9043 25.6953L21.834 31.0132L19.4902 35.0727C20.0586 35.4009 20.763 35.212 21.091 34.6438L22.1223 32.8577L26.2771 30.1144C26.452 29.9989 26.5863 29.86 26.7613 29.7445L26.7927 29.2213C26.8806 27.7565 26.1627 26.4219 24.9043 25.6953Z" fill="#ADB5CC"/>
<path d="M15.3125 7.10938V0C15.9688 0 16.4844 0.515547 16.4844 1.17188V5.9375C16.4844 6.59367 15.9688 7.10938 15.3125 7.10938Z" fill="#ADB5CC"/>
<path d="M16.4844 31.7188C16.4844 32.3749 15.9688 32.8906 15.3125 32.8906V30.5469C15.9688 30.5469 16.4844 31.0624 16.4844 31.7188Z" fill="#D36836"/>
</svg>
