<svg width="72" height="72" viewBox="0 0 72 72" fill="none" xmlns="http://www.w3.org/2000/svg">
<rect width="72" height="72" rx="24" fill="#2D2E74" fill-opacity="0.1"/>
<g clip-path="url(#clip0_1_4656)">
<path d="M51.5976 23.6265C51.3508 22.0246 49.9833 20.6571 48.3814 20.4102C47.4164 20.264 46.097 20.1227 44.2964 20.0452C42.4958 19.969 41.182 19.9984 40.2239 20.0652C38.6333 20.1765 37.3758 21.4859 37.237 23.1446C37.1558 24.1415 37.0983 25.5096 37.1039 27.3815C37.1095 29.254 37.1745 30.6221 37.2645 31.6196C37.4126 33.2796 38.7289 34.5952 40.3883 34.7434C41.3851 34.8327 42.7539 34.899 44.6264 34.904C46.4983 34.909 47.867 34.8521 48.8633 34.7709C50.5214 34.6321 51.8308 33.374 51.9426 31.784C52.0095 30.8259 52.0395 29.5121 51.9626 27.7115C51.8851 25.9109 51.7439 24.5921 51.5976 23.6265Z" fill="url(#paint0_linear_1_4656)"/>
<path d="M34.7514 40.3804C34.6033 38.7204 33.2877 37.4048 31.6277 37.2566C30.6302 37.1673 29.2621 37.101 27.3896 37.096C25.5171 37.091 24.1489 37.1479 23.1527 37.2291C21.4946 37.3679 20.1846 38.626 20.0733 40.216C20.0064 41.1741 19.9764 42.4879 20.0533 44.2885C20.1308 46.0891 20.2727 47.4079 20.4183 48.3735C20.6658 49.9754 22.0327 51.3429 23.6346 51.5898C24.6002 51.736 25.9189 51.8773 27.7196 51.9548C29.5202 52.031 30.8339 52.0016 31.7921 51.9348C33.3821 51.8235 34.6402 50.5141 34.7789 48.8554C34.8602 47.8585 34.9177 46.4904 34.9121 44.6185C34.9071 42.746 34.8408 41.3779 34.7514 40.3804Z" fill="url(#paint1_linear_1_4656)"/>
<path d="M51.9426 40.2161C51.8313 38.6261 50.5219 37.368 48.8632 37.2292C47.8663 37.148 46.4982 37.0905 44.6263 37.0961C42.7538 37.1011 41.3857 37.1667 40.3882 37.2567C38.7282 37.4055 37.4126 38.7211 37.2644 40.3805C37.1751 41.378 37.1088 42.7461 37.1038 44.6186C37.0988 46.4905 37.1563 47.8592 37.2369 48.8555C37.3757 50.5142 38.6338 51.8236 40.2238 51.9348C41.1819 52.0017 42.4957 52.0317 44.2963 51.9548C46.0969 51.8773 47.4163 51.7355 48.3813 51.5898C49.9832 51.343 51.3507 49.9755 51.5976 48.3736C51.7432 47.4086 51.8851 46.0892 51.9626 44.2886C52.0388 42.488 52.0094 41.1742 51.9426 40.2161Z" fill="url(#paint2_linear_1_4656)"/>
<path d="M23.1523 34.7707C24.1491 34.8519 25.5173 34.9094 27.3891 34.9038C29.2616 34.8988 30.6298 34.8325 31.6273 34.7432C33.2866 34.5944 34.6023 33.2788 34.751 31.6194C34.8404 30.6219 34.9066 29.2538 34.9116 27.3813C34.9166 25.5088 34.8591 24.1407 34.7785 23.1444C34.6398 21.4857 33.3816 20.1763 31.7916 20.065C30.8341 19.9988 29.5198 19.9688 27.7191 20.045C25.9191 20.1225 24.5991 20.2644 23.6341 20.41C22.0323 20.6575 20.6654 22.025 20.4185 23.6269C20.2729 24.5919 20.1304 25.9113 20.0535 27.7113C20.0273 28.3244 20.0141 28.8794 20.0098 29.385V30.065C20.016 30.7375 20.0404 31.305 20.0735 31.7832C20.1848 33.3732 21.4941 34.6313 23.1529 34.77L23.1523 34.7707Z" fill="url(#paint3_linear_1_4656)"/>
<path d="M40.2239 20.0652C38.6333 20.1765 37.3758 21.4859 37.237 23.1446C37.1558 24.1415 37.0983 25.5096 37.1039 27.3815C37.1095 29.254 37.1745 30.6221 37.2645 31.6196C37.4126 33.2796 38.7289 34.5952 40.3883 34.7434C41.1445 34.8115 42.1145 34.8652 43.3551 34.8902C44.3595 32.699 44.9195 30.2627 44.9195 27.6946C44.9195 24.9334 44.2714 22.324 43.1201 20.0084C41.9058 19.9846 40.9589 20.014 40.2233 20.0652H40.2239Z" fill="url(#paint4_linear_1_4656)"/>
<path d="M31.6279 37.2566C30.6304 37.1673 29.2623 37.101 27.3898 37.096C25.5173 37.091 24.1491 37.1479 23.1529 37.2291C21.4948 37.3679 20.1848 38.626 20.0735 40.216C20.0404 40.6948 20.016 41.2629 20.0098 41.936V42.6129C20.0116 42.8085 20.0141 43.0116 20.0191 43.2223C22.316 44.3504 24.8985 44.9841 27.6298 44.9841C30.361 44.9841 32.6885 44.4104 34.8985 43.3854C34.8741 42.126 34.8198 41.1435 34.751 40.3798C34.6029 38.7198 33.2873 37.4048 31.6273 37.256L31.6279 37.2566Z" fill="url(#paint5_linear_1_4656)"/>
<path d="M42.108 37.1484C41.4387 37.1766 40.8699 37.2141 40.388 37.2572C38.728 37.4059 37.4124 38.7216 37.2643 40.3809C37.2205 40.8684 37.1824 41.4459 37.1543 42.1266C39.1255 40.8228 40.8137 39.1266 42.108 37.1484Z" fill="#2D2E74"/>
</g>
<defs>
<linearGradient id="paint0_linear_1_4656" x1="44.5685" y1="33.6512" x2="44.5685" y2="21.529" gradientUnits="userSpaceOnUse">
<stop stop-color="#2D2E74"/>
<stop offset="1" stop-color="#5658BA"/>
</linearGradient>
<linearGradient id="paint1_linear_1_4656" x1="27.4728" y1="50.7469" x2="27.4728" y2="38.6247" gradientUnits="userSpaceOnUse">
<stop stop-color="#2D2E74"/>
<stop offset="1" stop-color="#5658BA"/>
</linearGradient>
<linearGradient id="paint2_linear_1_4656" x1="44.5683" y1="50.7472" x2="44.5683" y2="38.6247" gradientUnits="userSpaceOnUse">
<stop stop-color="#2D2E74"/>
<stop offset="1" stop-color="#5658BA"/>
</linearGradient>
<linearGradient id="paint3_linear_1_4656" x1="27.4638" y1="35.2635" x2="27.4638" y2="23.4634" gradientUnits="userSpaceOnUse">
<stop stop-color="#DD5F06"/>
<stop offset="1" stop-color="#FC954C"/>
</linearGradient>
<linearGradient id="paint4_linear_1_4656" x1="41.0182" y1="33.6383" x2="41.0182" y2="21.5275" gradientUnits="userSpaceOnUse">
<stop stop-color="#2D2E74"/>
<stop offset="1" stop-color="#5658BA"/>
</linearGradient>
<linearGradient id="paint5_linear_1_4656" x1="27.4668" y1="44.3209" x2="27.4668" y2="37.905" gradientUnits="userSpaceOnUse">
<stop stop-color="#2D2E74"/>
<stop offset="1" stop-color="#5658BA"/>
</linearGradient>
<clipPath id="clip0_1_4656">
<rect width="32" height="32" fill="white" transform="translate(20 20)"/>
</clipPath>
</defs>
</svg>
