<svg width="72" height="72" viewBox="0 0 72 72" fill="none" xmlns="http://www.w3.org/2000/svg">
<rect width="72" height="72" rx="24" fill="#2D2E74" fill-opacity="0.1"/>
<path d="M23.5 51.6561H48.5C50.2313 51.6561 51.625 50.2623 51.625 48.5311V29.8179C51.625 20.9417 20.375 20.2129 20.375 29.8179V48.5311C20.375 50.2623 21.7688 51.6561 23.5 51.6561Z" fill="url(#paint0_linear_1_4669)"/>
<path d="M34.4295 17.6782L18.8125 26.6937C17.3186 27.5566 16.8066 29.4669 17.6687 30.9613C18.5314 32.4569 19.1936 32.9694 20.6887 32.1057L34.6141 24.7882C35.6051 24.216 36.5486 24.3034 37.4251 24.8095L51.3137 32.1057C52.8082 32.9677 53.4685 32.4554 54.3313 30.9613C55.1937 29.4674 54.6825 27.5573 53.1893 26.6937L37.5625 17.6721C37.3687 17.5698 36.7824 17.262 36.0006 17.254C35.2941 17.2468 34.6007 17.5886 34.4295 17.6782Z" fill="url(#paint1_linear_1_4669)"/>
<path d="M18.8125 49.125H53.1875C54.0531 49.125 54.75 49.8219 54.75 50.6875V53.1875C54.75 54.0531 54.0531 54.75 53.1875 54.75H18.8125C17.9469 54.75 17.25 54.0531 17.25 53.1875V50.6875C17.25 49.8219 17.9469 49.125 18.8125 49.125Z" fill="url(#paint2_linear_1_4669)"/>
<path d="M45.3661 42.4845C45.3661 47.6575 41.1725 51.2502 35.9994 51.2502C30.8264 51.2502 26.6328 47.6575 26.6328 42.4845C26.6328 39.8322 27.135 38.4051 29.8422 35.6979C31.7971 33.743 31.1364 32.1754 32.2044 32.1754C33.1349 32.1754 34.8687 34.9359 33.6181 37.102C32.951 38.2575 33.9086 39.4199 34.9909 39.4199C36.2711 39.4199 37.0254 37.6602 37.0254 36.105C37.0254 31.897 37.9 29.748 39.5197 29.748C40.7644 29.748 40.2383 32.3263 41.504 33.7876C43.9326 36.5916 45.3661 39.0838 45.3661 42.4845Z" fill="url(#paint3_linear_1_4669)"/>
<path d="M39.758 47.5386C39.758 49.6141 38.0756 51.4179 36.0001 51.4179C33.9247 51.4179 32.2422 49.6141 32.2422 47.5386C32.2422 45.5753 33.2073 44.2485 34.3821 45.4233C34.9903 46.0315 35.8285 45.2316 35.4654 44.6027C34.5884 43.0836 34.8193 42.1777 35.5809 42.1777C36.5328 42.1777 39.758 43.8804 39.758 47.5386Z" fill="url(#paint4_linear_1_4669)"/>
<defs>
<linearGradient id="paint0_linear_1_4669" x1="35.9996" y1="17.6741" x2="35.9996" y2="53.8985" gradientUnits="userSpaceOnUse">
<stop stop-color="#CAE9FF"/>
<stop offset="1" stop-color="#84C5F2"/>
</linearGradient>
<linearGradient id="paint1_linear_1_4669" x1="36.0321" y1="31.2413" x2="36.0321" y2="18.8206" gradientUnits="userSpaceOnUse">
<stop stop-color="#2D2E74"/>
<stop offset="1" stop-color="#5658BA"/>
</linearGradient>
<linearGradient id="paint2_linear_1_4669" x1="36.0319" y1="54.2771" x2="36.0319" y2="49.7021" gradientUnits="userSpaceOnUse">
<stop stop-color="#2D2E74"/>
<stop offset="1" stop-color="#5658BA"/>
</linearGradient>
<linearGradient id="paint3_linear_1_4669" x1="36.0031" y1="51.7686" x2="36.0031" y2="34.7447" gradientUnits="userSpaceOnUse">
<stop stop-color="#DD5F06"/>
<stop offset="1" stop-color="#FC954C"/>
</linearGradient>
<linearGradient id="paint4_linear_1_4669" x1="36.004" y1="51.972" x2="36.004" y2="45.1562" gradientUnits="userSpaceOnUse">
<stop stop-color="#FED901"/>
<stop offset="1" stop-color="#FFF8D2"/>
</linearGradient>
</defs>
</svg>
