<svg width="72" height="72" viewBox="0 0 72 72" fill="none" xmlns="http://www.w3.org/2000/svg">
<rect width="72" height="72" rx="24" fill="#2D2E74" fill-opacity="0.1"/>
<g clip-path="url(#clip0_1_4557)">
<path d="M19.5938 23.0312C18.946 23.0312 18.4219 23.5554 18.4219 24.2031V38.4219C18.4219 39.0696 18.946 39.5938 19.5938 39.5938C20.2415 39.5938 20.7656 39.0696 20.7656 38.4219V24.2031C20.7656 23.5554 20.2415 23.0312 19.5938 23.0312ZM52.4062 23.0312C51.7585 23.0312 51.2344 23.5554 51.2344 24.2031V38.4219C51.2344 39.0696 51.7585 39.5938 52.4062 39.5938C53.054 39.5938 53.5781 39.0696 53.5781 38.4219V24.2031C53.5781 23.5554 53.054 23.0312 52.4062 23.0312ZM47.7188 40.7656H24.2812C22.9675 40.7656 21.9375 41.7956 21.9375 43.1094V47.7969C21.9375 49.1106 22.9675 50.1406 24.2812 50.1406H47.7188C49.0325 50.1406 50.0625 49.1106 50.0625 47.7969V43.1094C50.0625 41.7956 49.0325 40.7656 47.7188 40.7656ZM33.6562 39.5938H47.7188C48.3665 39.5938 48.8906 39.0696 48.8906 38.4219V31.3906C48.8906 30.7429 48.3665 30.2188 47.7188 30.2188H33.6562C33.0085 30.2188 32.4844 30.7429 32.4844 31.3906V38.4219C32.4844 39.0696 33.0085 39.5938 33.6562 39.5938ZM24.2812 39.5938H28.9688C29.6165 39.5938 30.1406 39.0696 30.1406 38.4219V36.0781C30.1406 34.5523 29.158 33.2638 27.7969 32.7784V29.0469C27.7969 28.3991 27.2727 27.875 26.625 27.875C25.9773 27.875 25.4531 28.3991 25.4531 29.0469V32.7784C24.092 33.2638 23.1094 34.5523 23.1094 36.0781V38.4219C23.1094 39.0696 23.6335 39.5938 24.2812 39.5938Z" fill="url(#paint0_linear_1_4557)"/>
<path d="M52.4844 16H19.5156C17.577 16 16 17.577 16 19.5156V21.8594C16 23.798 17.6552 25.375 19.5938 25.375C20.4933 25.375 21.3149 25.0363 21.9375 24.4778C23.1826 25.5948 25.3798 25.5948 26.625 24.4778C27.8701 25.5948 30.0673 25.5948 31.3125 24.4778C32.5576 25.5948 34.7548 25.5948 36 24.4778C37.2451 25.5948 39.4423 25.5948 40.6875 24.4778C41.9327 25.5948 44.1298 25.5948 45.375 24.4778C46.6202 25.5948 48.8173 25.5948 50.0625 24.4778C50.6851 25.0363 51.5067 25.375 52.4062 25.375C54.3448 25.375 56 23.798 56 21.8594V19.5156C56 17.577 54.423 16 52.4844 16ZM54.8281 37.25H17.1719C16.5155 37.25 16 37.7655 16 38.4219C16 39.078 16.5155 39.5938 17.1719 39.5938H18.4219V54.8281C18.4219 55.4843 18.9374 56 19.5938 56C20.2501 56 20.7656 55.4843 20.7656 54.8281V53.6562H51.2344V54.8281C51.2344 55.4843 51.7499 56 52.4062 56C53.0626 56 53.5781 55.4843 53.5781 54.8281V39.5938H54.8281C55.4845 39.5938 56 39.078 56 38.4219C56 37.7655 55.4845 37.25 54.8281 37.25ZM48.8906 47.7969C48.8906 48.453 48.3751 48.9688 47.7188 48.9688H24.2812C23.6249 48.9688 23.1094 48.453 23.1094 47.7969V43.1094C23.1094 42.453 23.6249 41.9375 24.2812 41.9375H47.7188C48.3751 41.9375 48.8906 42.453 48.8906 43.1094V47.7969Z" fill="url(#paint1_linear_1_4557)"/>
<path d="M45.6414 46.9181C45.6414 52.0911 41.4479 55.6838 36.2748 55.6838C31.1018 55.6838 26.9082 52.0911 26.9082 46.9181C26.9082 44.2658 27.4103 42.8387 30.1176 40.1315C32.0725 38.1766 31.4118 36.609 32.4798 36.609C33.4103 36.609 35.1441 39.3695 33.8935 41.5356C33.2264 42.6911 34.1839 43.8535 35.2663 43.8535C36.5465 43.8535 37.3008 42.0938 37.3008 40.5386C37.3008 36.3306 38.1754 34.1816 39.7951 34.1816C41.0398 34.1816 40.5137 36.7599 41.7794 38.2212C44.208 41.0252 45.6414 43.5174 45.6414 46.9181Z" fill="url(#paint2_linear_1_4557)"/>
<path d="M40.0334 51.9722C40.0334 54.0477 38.351 55.8515 36.2755 55.8515C34.2001 55.8515 32.5176 54.0477 32.5176 51.9722C32.5176 50.0089 33.4827 48.6821 34.6575 49.8569C35.2657 50.4651 36.1039 49.6652 35.7408 49.0363C34.8638 47.5172 35.0947 46.6113 35.8563 46.6113C36.8082 46.6113 40.0334 48.314 40.0334 51.9722Z" fill="url(#paint3_linear_1_4557)"/>
</g>
<defs>
<linearGradient id="paint0_linear_1_4557" x1="35.9996" y1="18.1215" x2="35.9996" y2="52.2535" gradientUnits="userSpaceOnUse">
<stop stop-color="#CAE9FF"/>
<stop offset="1" stop-color="#84C5F2"/>
</linearGradient>
<linearGradient id="paint1_linear_1_4557" x1="36.034" y1="52.637" x2="36.034" y2="20.1035" gradientUnits="userSpaceOnUse">
<stop stop-color="#2D2E74"/>
<stop offset="1" stop-color="#5658BA"/>
</linearGradient>
<linearGradient id="paint2_linear_1_4557" x1="36.2785" y1="56.2022" x2="36.2785" y2="39.1783" gradientUnits="userSpaceOnUse">
<stop stop-color="#DD5F06"/>
<stop offset="1" stop-color="#FC954C"/>
</linearGradient>
<linearGradient id="paint3_linear_1_4557" x1="36.2794" y1="56.4056" x2="36.2794" y2="49.5897" gradientUnits="userSpaceOnUse">
<stop stop-color="#FED901"/>
<stop offset="1" stop-color="#FFF8D2"/>
</linearGradient>
<clipPath id="clip0_1_4557">
<rect width="40" height="40" fill="white" transform="translate(16 16)"/>
</clipPath>
</defs>
</svg>
