<svg width="16" height="16" viewBox="0 0 16 16" fill="none" xmlns="http://www.w3.org/2000/svg">
<path d="M1.97288 7.00353L13.8602 7.00353C14.4111 7.00353 14.8574 7.44991 14.8574 8.00079C14.8574 8.55168 14.4111 8.99805 13.8602 8.99805L1.97288 8.99805C1.42199 8.99805 0.97562 8.55167 0.97562 8.00079C0.97562 7.44991 1.42199 7.00353 1.97288 7.00353Z" fill="#1B1B4A"/>
<path d="M6.54045 2.28627C6.80811 2.28627 7.07537 2.39358 7.27203 2.60539C7.6466 3.00908 7.62267 3.64015 7.21898 4.01472L2.93197 7.99058L7.34862 11.9772C7.7575 12.3462 7.78981 12.9769 7.42082 13.3857C7.05184 13.7946 6.42117 13.8269 6.0123 13.4579L0.786678 8.74091C0.57885 8.55343 0.459578 8.28736 0.457584 8.00733C0.455589 7.7273 0.571271 7.45964 0.776706 7.26936L5.86271 2.55234C6.05458 2.37443 6.29791 2.28627 6.54045 2.28627Z" fill="#1B1B4A"/>
</svg>
