<svg width="25" height="24" viewBox="0 0 25 24" fill="none" xmlns="http://www.w3.org/2000/svg">
<path fill-rule="evenodd" clip-rule="evenodd" d="M16.2295 7.76551C16.2295 10.0171 14.4038 11.8415 12.1534 11.8415C9.90179 11.8415 8.07617 10.0171 8.07617 7.76551C8.07617 5.51387 9.90179 3.68945 12.1534 3.68945C14.4038 3.68945 16.2295 5.51387 16.2295 7.76551Z" stroke="#BBBBD1" stroke-width="1.44" stroke-linecap="round" stroke-linejoin="round"/>
<path fill-rule="evenodd" clip-rule="evenodd" d="M18.3974 18.4275C18.4893 18.772 18.3254 19.1261 18.022 19.3135C16.3271 20.36 14.328 20.9699 12.1892 20.9699C10.0265 20.9699 8.00411 20.349 6.30459 19.2809C6.00317 19.0914 5.84244 18.7364 5.93739 18.3933C6.4332 16.6017 8.23509 14.8203 12.1531 14.8203C16.1179 14.8203 17.9137 16.6146 18.3974 18.4275Z" stroke="#BBBBD1" stroke-width="1.44" stroke-linecap="round" stroke-linejoin="round"/>
</svg>
