<svg width="14" height="14" viewBox="0 0 14 14" fill="none" xmlns="http://www.w3.org/2000/svg">
<path d="M12.274 7.87215H1.8726C1.39058 7.87215 1 7.48158 1 6.99955C1 6.51753 1.39058 6.12695 1.8726 6.12695H12.274C12.756 6.12695 13.1466 6.51753 13.1466 6.99955C13.1466 7.48158 12.756 7.87215 12.274 7.87215Z" fill="#F47820"/>
<path d="M8.27833 12C8.04413 12 7.81027 11.9061 7.63819 11.7208C7.31045 11.3675 7.33139 10.8154 7.68462 10.4876L11.4357 7.00873L7.57118 3.52043C7.21341 3.19757 7.18514 2.64574 7.508 2.28797C7.83086 1.93021 8.38269 1.90194 8.74046 2.2248L13.3129 6.35219C13.4947 6.51624 13.5991 6.74905 13.6008 6.99407C13.6026 7.2391 13.5014 7.47331 13.3216 7.6398L8.87135 11.7672C8.70346 11.9229 8.49055 12 8.27833 12Z" fill="#F47820"/>
</svg>
