<svg width="29" height="35" viewBox="0 0 29 35" fill="none" xmlns="http://www.w3.org/2000/svg">
<path d="M24.0294 33.6002C22.1741 35.4411 20.1272 35.1543 18.1761 34.2861C16.1018 33.4006 14.2055 33.3447 12.0148 34.2861C9.28671 35.4902 7.8388 35.1402 6.19579 33.6002C-3.08041 23.8352 -1.71123 8.96016 8.83146 8.40016C11.3884 8.54016 13.1786 9.84566 14.6847 9.95416C16.9233 9.48866 19.0661 8.15516 21.4621 8.33016C24.3408 8.56816 26.4939 9.73016 27.9315 11.8197C22.0098 15.4597 23.4132 23.4397 28.8524 25.6797C27.7637 28.6022 26.3672 31.4897 24.026 33.6247L24.0294 33.6002ZM14.4793 8.29516C14.2021 3.95516 17.6421 0.385156 21.5991 0.0351562C22.1433 5.04016 17.1492 8.78516 14.4793 8.29516Z" fill="black"/>
</svg>
