<svg width="60" height="60" viewBox="0 0 60 60" fill="none" xmlns="http://www.w3.org/2000/svg">
<circle cx="30" cy="30" r="30" fill="#2D2E74"/>
<path fill-rule="evenodd" clip-rule="evenodd" d="M30.4105 16.8527C27.8521 16.7675 25.2673 17.4655 23.0357 18.9551C20.5293 20.6299 18.7777 23.1031 17.9709 25.8679C17.7481 25.8407 17.4813 25.8527 17.1645 25.9423C15.9817 26.2779 15.0921 27.2471 14.6921 28.1007C14.1733 29.2131 13.9545 30.6843 14.1853 32.2031C14.4145 33.7171 15.0541 34.9651 15.8541 35.7399C16.6565 36.5151 17.5625 36.7671 18.4625 36.5779C19.8025 36.2919 20.4669 36.0779 20.2793 34.8295L19.3709 28.7779C19.5541 25.5027 21.2497 22.4195 24.0857 20.5235C27.8817 17.9879 32.8585 18.1503 36.4793 20.9299C38.9981 22.8611 40.4605 25.7547 40.6293 28.7923L39.9941 33.0255C38.5773 36.9027 35.0649 39.5883 31.0005 39.9695H28.2941C27.5957 39.9695 27.0333 40.5319 27.0333 41.2295V41.8943C27.0333 42.5923 27.5957 43.1547 28.2941 43.1547H31.7065C32.4045 43.1547 32.9645 42.5923 32.9645 41.8943V41.5467C36.0293 40.7987 38.7045 38.9151 40.4465 36.2883L41.5397 36.5783C42.4293 36.8091 43.3461 36.5151 44.1481 35.7403C44.9481 34.9651 45.5873 33.7175 45.8169 32.2035C46.0485 30.6847 45.8233 29.2159 45.3105 28.1011C44.7957 26.9863 44.0289 26.2783 43.1437 26.0243C42.7729 25.9175 42.3705 25.8783 42.0253 25.8679C41.2957 23.3679 39.7937 21.0943 37.6289 19.4343C35.5005 17.8011 32.9689 16.9367 30.4105 16.8527Z" fill="white"/>
<path fill-rule="evenodd" clip-rule="evenodd" d="M34.4046 27.7396C35.3066 27.7396 36.0378 28.4708 36.0398 29.3752C36.0378 30.2772 35.3066 31.0104 34.4046 31.0104C33.5002 31.0104 32.767 30.2772 32.767 29.3752C32.767 28.4712 33.5006 27.7396 34.4046 27.7396ZM30.0006 27.7396C30.9046 27.7396 31.6358 28.4708 31.6358 29.3752C31.6358 30.2772 30.9046 31.0104 30.0006 31.0104C29.0958 31.0104 28.3646 30.2772 28.3646 29.3752C28.3646 28.4712 29.0958 27.7396 30.0006 27.7396ZM25.5982 27.7396C26.5002 27.7396 27.2334 28.4708 27.2334 29.3752C27.2334 30.2772 26.5002 31.0104 25.5982 31.0104C24.6942 31.0104 23.9626 30.2772 23.9626 29.3752C23.9626 28.4712 24.6942 27.7396 25.5982 27.7396ZM30.0006 20.7148C25.2046 20.7148 21.3398 24.4524 21.3398 29.3752C21.3398 31.7396 22.2338 33.8292 23.6902 35.3624L23.1734 37.6792C23.003 38.4416 23.5318 38.9544 24.217 38.5728L26.4794 37.3108C27.5546 37.7776 28.7438 38.0356 30.0006 38.0356C34.7982 38.0356 38.6606 34.3004 38.6606 29.3752C38.6606 24.4524 34.7982 20.7148 30.0006 20.7148Z" fill="white"/>
</svg>
