<svg width="16" height="16" viewBox="0 0 16 16" fill="none" xmlns="http://www.w3.org/2000/svg">
<g clip-path="url(#clip0_1_3101)">
<path d="M8.00091 15.7333C12.2719 15.7333 15.7342 12.2709 15.7342 7.99994C15.7342 3.72893 12.2719 0.266602 8.00091 0.266602C3.72991 0.266602 0.267578 3.72893 0.267578 7.99994C0.267578 12.2709 3.72991 15.7333 8.00091 15.7333Z" fill="#F47820"/>
<path d="M6.47049 11.2187L4.65715 9.44748C4.61793 9.40936 4.58675 9.36376 4.56546 9.31337C4.54417 9.26299 4.5332 9.20885 4.5332 9.15415C4.5332 9.09945 4.54417 9.04531 4.56546 8.99493C4.58675 8.94454 4.61793 8.89894 4.65715 8.86082L5.25849 8.27415C5.33913 8.19602 5.447 8.15233 5.55929 8.15233C5.67157 8.15233 5.77945 8.19602 5.86009 8.27415L6.93955 9.32935L9.96702 4.72668C10.0295 4.63381 10.1256 4.56886 10.2351 4.54557C10.3446 4.52228 10.4588 4.54248 10.5537 4.60188L11.2694 5.05148C11.3162 5.08023 11.3567 5.11807 11.3885 5.16276C11.4204 5.20745 11.4429 5.25809 11.4548 5.31166C11.4667 5.36523 11.4678 5.42064 11.4579 5.47462C11.448 5.5286 11.4273 5.58004 11.3972 5.62588L7.81235 11.0776C7.74052 11.1843 7.64617 11.274 7.53594 11.3403C7.42571 11.4066 7.30228 11.4479 7.17435 11.4614C7.04642 11.4748 6.9171 11.4601 6.79549 11.4181C6.67388 11.3762 6.56294 11.3081 6.47049 11.2187Z" fill="white"/>
</g>
<defs>
<clipPath id="clip0_1_3101">
<rect width="16" height="16" fill="white"/>
</clipPath>
</defs>
</svg>
