<svg width="31" height="32" viewBox="0 0 31 32" fill="none" xmlns="http://www.w3.org/2000/svg">
<mask id="mask0_3_1402" style="mask-type:luminance" maskUnits="userSpaceOnUse" x="0" y="0" width="31" height="32">
<path d="M30.8129 0H0V32H30.8129V0Z" fill="white"/>
</mask>
<g mask="url(#mask0_3_1402)">
<path d="M30.8143 16.3664C30.8143 15.2787 30.7276 14.1852 30.5427 13.1152H15.7168V19.2765H24.2069C23.8546 21.2637 22.7226 23.0216 21.065 24.1385V28.1363H26.1302C29.1047 25.3496 30.8143 21.2343 30.8143 16.3664Z" fill="#4285F4"/>
<path d="M15.7162 31.9985C19.9555 31.9985 23.5306 30.5816 26.1353 28.1358L21.0702 24.1381C19.6609 25.1141 17.8416 25.6667 15.722 25.6667C11.6213 25.6667 8.14439 22.8505 6.89685 19.0645H1.66992V23.1856C4.33826 28.5887 9.77311 31.9985 15.7162 31.9985Z" fill="#34A853"/>
<path d="M6.89123 19.0656C6.2328 17.0785 6.2328 14.9268 6.89123 12.9396V8.81836H1.67009C-0.559299 13.3394 -0.559299 18.6659 1.67009 23.1868L6.89123 19.0656Z" fill="#FBBC04"/>
<path d="M15.7162 6.33092C17.9571 6.29566 20.123 7.15399 21.7459 8.72961L26.2335 4.16153C23.392 1.44539 19.6205 -0.0479077 15.7162 -0.000874908C9.77309 -0.000874908 4.33826 3.40901 1.66992 8.81779L6.89107 12.9391C8.13281 9.14701 11.6155 6.33092 15.7162 6.33092Z" fill="#EA4335"/>
</g>
</svg>
