<svg width="25" height="24" viewBox="0 0 25 24" fill="none" xmlns="http://www.w3.org/2000/svg">
<path d="M19.513 7.79467L14.8496 3.98236C13.2582 2.6799 10.9487 2.68082 9.3582 3.98236L4.69204 7.79559C3.45974 8.80728 2.88097 10.407 3.18189 11.9688L4.23512 17.4704C4.62651 19.5131 6.41727 20.9956 8.49328 20.9956H8.73051H15.4782H15.7127C17.7896 20.9956 19.5804 19.5131 19.9717 17.4704L21.0268 11.9688C21.3259 10.407 20.7462 8.80728 19.513 7.79467Z" fill="#2D2E74"/>
<path d="M9.00739 17.2095V20.7172C9.00739 20.8701 8.8834 20.9941 8.73047 20.9941L10.669 20.9938C10.516 20.9938 10.3921 20.8699 10.3921 20.7169V17.2092C10.3921 16.2677 11.1601 15.5015 12.1044 15.5015C13.0487 15.5015 13.8167 16.2677 13.8167 17.2092V20.7169C13.8167 20.8699 13.6927 20.9938 13.5398 20.9938L15.4781 20.9941C15.3252 20.9941 15.2012 20.8701 15.2012 20.7172V17.2095C15.2012 15.5046 13.812 14.1172 12.1043 14.1172C10.3966 14.1172 9.00739 15.5046 9.00739 17.2095Z" fill="#F47820"/>
</svg>
