<svg width="16" height="17" viewBox="0 0 16 17" fill="none" xmlns="http://www.w3.org/2000/svg">
<path d="M8.00065 15.1663C4.31865 15.1663 1.33398 12.1817 1.33398 8.49967C1.33398 4.81767 4.31865 1.83301 8.00065 1.83301C11.6827 1.83301 14.6673 4.81767 14.6673 8.49967C14.6673 12.1817 11.6827 15.1663 8.00065 15.1663ZM8.00065 13.833C9.41514 13.833 10.7717 13.2711 11.7719 12.2709C12.7721 11.2707 13.334 9.91416 13.334 8.49967C13.334 7.08519 12.7721 5.72863 11.7719 4.72844C10.7717 3.72824 9.41514 3.16634 8.00065 3.16634C6.58616 3.16634 5.22961 3.72824 4.22941 4.72844C3.22922 5.72863 2.66732 7.08519 2.66732 8.49967C2.66732 9.91416 3.22922 11.2707 4.22941 12.2709C5.22961 13.2711 6.58616 13.833 8.00065 13.833ZM7.33398 5.16634H8.66732V6.49967H7.33398V5.16634ZM7.33398 7.83301H8.66732V11.833H7.33398V7.83301Z" fill="#F47820"/>
</svg>
