<svg width="80" height="80" viewBox="0 0 80 80" fill="none" xmlns="http://www.w3.org/2000/svg">
<path fill-rule="evenodd" clip-rule="evenodd" d="M7.5 40C7.5 22.0496 22.0496 7.5 40 7.5C57.9504 7.5 72.5 22.0496 72.5 40C72.5 57.9469 57.9506 72.5 40 72.5C22.0494 72.5 7.5 57.9469 7.5 40ZM40 12.5C24.811 12.5 12.5 24.811 12.5 40C12.5 55.1858 24.8112 67.5 40 67.5C55.1888 67.5 67.5 55.1858 67.5 40C67.5 24.811 55.189 12.5 40 12.5Z" fill="#F47820"/>
<path fill-rule="evenodd" clip-rule="evenodd" d="M40 25.1367C41.3807 25.1367 42.5 26.256 42.5 27.6367V27.8475C42.5 29.2282 41.3807 30.3475 40 30.3475C38.6193 30.3475 37.5 29.2282 37.5 27.8475V27.6367C37.5 26.256 38.6193 25.1367 40 25.1367ZM40.019 35.4787C41.3997 35.4787 42.519 36.5979 42.519 37.9787V52.3107C42.519 53.6914 41.3997 54.8107 40.019 54.8107C38.6383 54.8107 37.519 53.6914 37.519 52.3107V37.9787C37.519 36.5979 38.6383 35.4787 40.019 35.4787Z" fill="#F47820"/>
</svg>
