<svg width="25" height="24" viewBox="0 0 25 24" fill="none" xmlns="http://www.w3.org/2000/svg">
<path d="M16.7465 8.9043H17.8655C19.6738 8.9043 20.8076 10.1849 20.8076 11.9978V17.1264C20.8076 18.9384 19.6793 20.219 17.8655 20.219H7.13738C5.32259 20.219 4.19336 18.9384 4.19336 17.1264V11.9978C4.19336 10.1849 5.32259 8.9043 7.13645 8.9043H8.73643" stroke="#BBBBD1" stroke-width="1.44" stroke-linecap="round" stroke-linejoin="round"/>
<path d="M7.16211 11.4512H8.45666" stroke="#BBBBD1" stroke-width="1.44" stroke-linecap="round" stroke-linejoin="round"/>
<path d="M17.8434 17.6738H16.5488" stroke="#BBBBD1" stroke-width="1.44" stroke-linecap="round" stroke-linejoin="round"/>
<path fill-rule="evenodd" clip-rule="evenodd" d="M10.3906 14.561C10.3906 13.3944 11.3358 12.4492 12.5024 12.4492C13.669 12.4492 14.6142 13.3944 14.6142 14.561C14.6142 15.7276 13.669 16.6728 12.5024 16.6728C11.3358 16.6728 10.3906 15.7276 10.3906 14.561Z" stroke="#BBBBD1" stroke-width="1.44" stroke-linecap="round" stroke-linejoin="round"/>
<path d="M10.5293 6.55859L12.501 8.53031L14.4727 6.55859" stroke="#BBBBD1" stroke-width="1.44" stroke-linecap="round" stroke-linejoin="round"/>
<path d="M12.502 2.93945V8.52861" stroke="#BBBBD1" stroke-width="1.44" stroke-linecap="round" stroke-linejoin="round"/>
</svg>
