<svg width="40" height="40" viewBox="0 0 40 40" fill="none" xmlns="http://www.w3.org/2000/svg">
<path fill-rule="evenodd" clip-rule="evenodd" d="M21.4116 11.1856C21.4116 10.4672 20.7998 10 20.0403 10C19.2818 10 18.6697 10.4672 18.6695 11.1856C18.6695 11.6378 18.6528 11.9752 18.3688 12.0617C15.9467 12.7914 14.3935 14.5017 14.3935 16.7229V20.4561C14.3935 22.0179 13.8078 22.4422 13.0348 23.0023C12.9613 23.0556 12.886 23.1101 12.8095 23.1669C11.5312 24.1128 11.823 26.0824 13.2898 26.0811H26.7913C28.2581 26.0824 28.5499 24.1128 27.2716 23.1669C27.1955 23.1105 27.1207 23.0563 27.0476 23.0034C26.2732 22.4428 25.6876 22.0189 25.6876 20.4561V16.7229C25.6876 14.5017 24.1344 12.7914 21.7123 12.0617C21.4274 11.9752 21.4116 11.6378 21.4116 11.1856ZM21.4252 29.6354C22.2828 29.1489 22.8108 28.4048 22.8108 27.4324H17.2703C17.2703 28.4048 17.798 29.1489 18.6559 29.6354C19.5116 30.1215 20.5679 30.1215 21.4252 29.6354Z" fill="#31375C"/>
</svg>
