<svg width="25" height="24" viewBox="0 0 25 24" fill="none" xmlns="http://www.w3.org/2000/svg">
<path d="M19.8247 12.6684C19.8247 18.7826 12.5011 21 12.5011 21C12.5011 21 5.17752 18.7836 5.17752 12.6684C5.17752 6.55524 4.91092 6.07751 5.4986 5.48984C6.08725 4.90216 11.5408 3 12.5011 3C13.4614 3 18.914 4.89632 19.5016 5.48984C20.0903 6.08238 19.8247 6.55622 19.8247 12.6684Z" stroke="#BBBBD1" stroke-width="1.5" stroke-linecap="round" stroke-linejoin="round"/>
<path fill-rule="evenodd" clip-rule="evenodd" d="M13.3762 14.7013H11.6258C11.3505 14.7013 11.1267 14.4775 11.1267 14.2021V12.7796H9.70226C9.42691 12.7796 9.20312 12.5568 9.20312 12.2805V10.5253C9.20312 10.2499 9.42691 10.0261 9.70226 10.0261H11.1267V8.6046C11.1267 8.32925 11.3505 8.10547 11.6258 8.10547H13.3762C13.6516 8.10547 13.8753 8.32925 13.8753 8.6046V10.0261H15.2998C15.5751 10.0261 15.7989 10.2499 15.7989 10.5253V12.2805C15.7989 12.5568 15.5751 12.7796 15.2998 12.7796H13.8753V14.2021C13.8753 14.4775 13.6516 14.7013 13.3762 14.7013Z" stroke="#BBBBD1" stroke-width="1.5" stroke-linecap="round" stroke-linejoin="round"/>
</svg>
